<?xml version="1.0" ?>
<!-- Uploaded to: SVG Repo, www.svgrepo.com, Generator: SVG Repo Mixer Tools -->
<svg width="800px" height="800px" viewBox="0 0 512 512" id="Layer_1" version="1.1" xml:space="preserve" xmlns="http://www.w3.org/2000/svg" xmlns:xlink="http://www.w3.org/1999/xlink">
<style type="text/css">
	.st0{fill:#333333;}
</style>
<g>
<path class="st0" d="M394.4,355.4c-8.5-9-15.9-16.8-30.8-16.8c-14.9,0-22.3,7.8-30.8,16.8c-9.4,9.9-20,21.2-40.9,21.2   c-21,0-31.6-11.2-41-21.2c-8.5-9-15.9-16.8-30.8-16.8c-14.9,0-22.3,7.8-30.8,16.8c-9.4,9.9-20,21.2-40.9,21.2   c-21,0-31.6-11.2-41-21.2c-8.5-9-15.9-16.8-30.8-16.8v66.6c21,0,31.6,11.2,41,21.2c8.5,9,15.9,16.8,30.8,16.8   c14.9,0,22.3-7.8,30.8-16.8c9.4-9.9,20-21.2,41-21.2c20.9,0,31.6,11.2,41,21.2c8.5,9,15.9,16.8,30.8,16.8   c14.9,0,22.3-7.8,30.8-16.8c9.4-9.9,20-21.2,41-21.2c21,0,31.6,11.2,41,21.2c8.5,9,15.9,16.8,30.8,16.8v-66.6   C414.4,376.6,403.8,365.3,394.4,355.4z"/>
<path class="st0" d="M394.4,436c-8.5-9-15.9-16.8-30.8-16.8c-14.9,0-22.3,7.8-30.8,16.8c-9.4,9.9-20,21.1-40.9,21.1   c-21,0-31.6-11.2-41-21.1c-8.5-9-15.9-16.8-30.8-16.8c-14.9,0-22.3,7.8-30.8,16.8c-9.4,9.9-20,21.1-40.9,21.1   c-21,0-31.6-11.2-41-21.1c-8.5-9-15.9-16.8-30.8-16.8v63.3h358.7v-25.3C414.4,457.2,403.8,445.9,394.4,436z"/>
<path class="st0" d="M435.4,281.9c-14.9,0-22.3-7.8-30.8-16.8c-9.4-9.9-20-21.1-41-21.1c-20.9,0-31.6,11.2-40.9,21.1   c-8.5,9-15.9,16.8-30.8,16.8c-14.9,0-22.3-7.8-30.8-16.8c-9.4-9.9-20-21.1-41-21.1c-20.9,0-31.6,11.2-41,21.1   c-8.5,9-15.9,16.8-30.8,16.8c-14.9,0-22.3-7.8-30.8-16.8c-9.4-9.9-20-21.1-41-21.1c-3.9,0-7,3.1-7,7s3.1,7,7,7v66.6   c21,0,31.6,11.2,41,21.2c8.5,9,15.9,16.8,30.8,16.8c14.9,0,22.3-7.8,30.8-16.8c9.4-9.9,20-21.2,41-21.2c20.9,0,31.6,11.2,41,21.2   c8.5,9,15.9,16.8,30.8,16.8c14.9,0,22.3-7.8,30.8-16.8c9.4-9.9,20-21.2,41-21.2c21,0,31.6,11.2,41,21.2c8.5,9,15.9,16.8,30.8,16.8   v-66.6c3.9,0,7-3.1,7-7C442.4,285.1,439.2,281.9,435.4,281.9z"/>
<path class="st0" d="M168,256.6v-41.3h159V242c4-3,8.6-5.8,14-7.9v-25.7c0,0,0,0,0-0.1s0,0,0-0.1v-92.9c0,0,0,0,0-0.1s0,0,0-0.1   V63.2c0-10.8,8.8-19.7,19.7-19.7c10.8,0,19.7,8.8,19.7,19.7c0,3.9,3.1,7,7,7c3.9,0,7-3.1,7-7c0-18.6-15.1-33.7-33.7-33.7   S327,44.6,327,63.2v45.1H168V63.2c0-10.8,8.8-19.7,19.7-19.7c10.8,0,19.7,8.8,19.7,19.7c0,3.9,3.1,7,7,7c3.9,0,7-3.1,7-7   c0-18.6-15.1-33.7-33.7-33.7c-18.6,0-33.7,15.1-33.7,33.7v204.1C158.8,265.9,162.3,262.6,168,256.6z M327,122.3v79H168v-79H327z"/>
</g>
</svg>